<svg width="87" height="96" viewBox="0 0 87 96" fill="none" xmlns="http://www.w3.org/2000/svg">
<path d="M39.7487 5.26397C39.3993 4.93634 39.0498 4.69607 38.7222 4.52134C38.3945 4.36844 38.0232 4.28107 37.6082 4.28107C37.1277 4.28107 36.7782 4.39028 36.5379 4.58686C36.2977 4.78344 36.1666 5.11108 36.1666 5.54792C36.1666 5.85371 36.2977 6.13766 36.5598 6.33424C36.8219 6.55266 37.1277 6.74924 37.5208 6.94582C37.914 7.1424 38.329 7.33898 38.7658 7.5574C39.2027 7.77582 39.6177 8.01609 40.0108 8.32188C40.404 8.62767 40.7098 8.97715 40.9719 9.41399C41.234 9.85083 41.3651 10.375 41.3651 10.9866C41.3651 11.9258 41.103 12.734 40.6006 13.4111C40.0982 14.0882 39.3119 14.5251 38.3072 14.7653V16.8185H36.4069V14.8527C35.839 14.7872 35.2274 14.6343 34.594 14.3722C33.9606 14.1101 33.4145 13.7824 32.9558 13.3674L34.2227 11.4235C34.725 11.7948 35.2056 12.0787 35.6424 12.2753C36.1011 12.4719 36.5598 12.5593 37.0185 12.5593C37.5645 12.5593 37.9795 12.4501 38.2198 12.2316C38.4819 12.0132 38.6129 11.6637 38.6129 11.2051C38.6129 10.8556 38.4819 10.5716 38.2198 10.3314C37.9577 10.0911 37.6519 9.87268 37.2587 9.65425C36.8656 9.43583 36.4506 9.21741 36.0137 8.99899C35.5769 8.78057 35.1619 8.51846 34.7687 8.21267C34.3756 7.90688 34.0698 7.5574 33.8077 7.1424C33.5455 6.7274 33.4145 6.24687 33.4145 5.65713C33.4145 4.69607 33.6766 3.88791 34.2008 3.25449C34.725 2.62106 35.4677 2.20606 36.385 2.03132V0H38.2853V1.98764C38.9187 2.07501 39.4648 2.27159 39.9453 2.55554C40.4258 2.83949 40.8408 3.18896 41.234 3.60396L39.7487 5.26397Z" fill="#333B41"/>
<path fill-rule="evenodd" clip-rule="evenodd" d="M86.7749 76.0006L83.1812 73.7891L75.1644 88.164L79.0346 90.0991L86.7749 76.0006Z" fill="#333B41"/>
<path fill-rule="evenodd" clip-rule="evenodd" d="M80.3332 73.3357L73.7401 85.254C73.6748 85.2249 73.6046 85.1938 73.5296 85.161C72.9647 84.9139 72.1229 84.5632 71.0043 84.1438L70.9933 84.1396C70.3375 83.9054 69.5182 83.9122 68.6648 84.0302C67.7918 84.1509 66.7902 84.4025 65.7174 84.7395C63.5704 85.414 61.0586 86.4567 58.5782 87.5842C56.0939 88.7134 53.6213 89.9368 51.5498 90.9791C50.9577 91.2769 50.4006 91.5589 49.886 91.8193C48.6026 92.4689 47.5841 92.9843 46.9501 93.2779C44.5719 94.1994 42.8271 94.3165 41.7079 94.2232C41.1448 94.1763 40.7339 94.0757 40.4743 93.9927C40.3444 93.9512 40.2519 93.914 40.1969 93.8899C40.1693 93.8779 40.1511 93.8691 40.1423 93.8647C40.1405 93.8638 40.139 93.8631 40.138 93.8626C37.226 92.2449 34.3808 90.7652 31.5392 89.2874C27.0268 86.9407 22.5237 84.5988 17.7771 81.717L17.7686 81.7118L17.76 81.7069C16.8495 81.1866 13.9948 79.0837 10.8682 76.6519C7.76623 74.2392 4.478 71.5667 2.70359 69.9303C1.84844 69.0721 1.73514 68.5798 1.75154 68.3949C1.7605 68.294 1.83641 68.0993 2.32324 67.9324C2.79304 67.7713 3.46103 67.7173 4.16074 67.7955C4.86039 67.8737 5.50302 68.0741 5.93278 68.3427L5.98956 68.3782L6.05173 68.403C8.74088 69.4787 13.936 72.4825 17.2143 74.9413L17.387 75.0707L17.6021 75.0887C20.3961 75.3215 22.7864 75.9572 25.32 77.0086C24.1814 78 23.5549 79.0413 23.4652 80.1142C23.3489 81.5036 24.1527 82.6484 25.2244 83.4712C26.303 84.2995 27.7623 84.8977 29.2735 85.2209C30.7765 85.5423 32.3924 85.6049 33.8209 85.3101C36.2502 85.0097 39.235 85.0478 42.2528 85.0862C43.2743 85.0992 44.2996 85.1122 45.3084 85.1122C47.2842 85.1122 49.1907 85.0607 50.8225 84.8467C52.4294 84.636 53.8893 84.2547 54.881 83.5109L54.2873 82.1748C48.7185 83.2614 45.4143 82.9893 42.5636 82.65C42.3204 82.621 42.0797 82.5914 41.8404 82.562C39.2411 82.2423 36.8115 81.9436 33.2676 82.7297C33.0292 82.7759 32.5843 82.784 31.9759 82.7336C31.3817 82.6845 30.6923 82.5852 30.0059 82.4513C29.3191 82.3172 28.649 82.1512 28.0918 81.9722C27.5325 81.7926 27.1592 81.6222 26.9808 81.4964C26.5464 81.1092 26.4173 80.7924 26.392 80.5647C26.3655 80.3262 26.4382 80.0521 26.6507 79.7332C27.091 79.0728 27.9753 78.4588 28.7599 78.0635C31.5386 76.894 34.2899 76.8967 37.3798 76.8998C38.0845 76.9005 38.8068 76.9012 39.551 76.888C43.5298 76.8176 47.9047 76.3202 52.9063 73.0339C58.4312 69.4429 63.12 67.062 67.5319 66.8316C71.7548 66.611 75.8682 68.3607 80.3332 73.3357ZM73.7231 86.8991L74.3663 87.2208L82.1564 73.1387L81.8111 72.7426C77.0115 67.2373 72.3824 65.0761 67.4537 65.3336C62.6053 65.5869 57.6191 68.1816 52.0872 71.7773L52.084 71.7794C47.4108 74.8504 43.3548 75.3205 39.5245 75.3882C38.8462 75.4002 38.1673 75.3987 37.4883 75.3971C34.3948 75.3898 31.297 75.3826 28.2276 76.6602L27.0972 76.1465C24.0601 74.7659 21.2663 73.9152 17.9418 73.6126C14.6023 71.1377 9.47324 68.1691 6.66824 67.0342C6.00069 66.6338 5.14934 66.3966 4.32729 66.3048C3.48066 66.2102 2.57639 66.2599 1.83676 66.5135C1.11417 66.7612 0.343475 67.2921 0.257408 68.2624C0.178848 69.148 0.721115 70.0692 1.65334 71.0014L1.66394 71.012L1.67496 71.0222C3.49695 72.704 6.83597 75.416 9.94733 77.8359C13.0317 80.2349 15.9742 82.4111 17.0069 83.0041C21.7765 85.8995 26.3722 88.2907 30.9256 90.6599C33.7613 92.1353 36.5806 93.6022 39.4154 95.1771L39.7431 94.5871C39.4154 95.1771 39.4159 95.1773 39.4163 95.1776L39.4174 95.1781L39.4196 95.1794L39.4247 95.1821L39.4377 95.1891C39.4477 95.1944 39.4602 95.2008 39.4752 95.2082C39.5053 95.2232 39.5454 95.2422 39.5956 95.2642C39.6961 95.3081 39.8369 95.3638 40.0179 95.4216C40.3803 95.5374 40.9024 95.6613 41.5833 95.7181C42.9487 95.8318 44.9287 95.6735 47.5154 94.6676L47.5369 94.6592L47.5578 94.6495C48.2165 94.3455 49.2834 93.8056 50.5967 93.1409C51.1053 92.8835 51.6508 92.6074 52.2239 92.319C54.2904 91.2794 56.7419 90.0666 59.1989 88.9497C61.6599 87.8311 64.1068 86.8178 66.1669 86.1706C67.1977 85.8467 68.1117 85.621 68.8703 85.5161C69.6446 85.409 70.1716 85.4407 70.4839 85.5506C71.5737 85.9594 72.3885 86.2991 72.9283 86.5352C73.1988 86.6535 73.4002 86.7459 73.5326 86.808C73.5988 86.839 73.6478 86.8625 73.6795 86.8778L73.7141 86.8947L73.7217 86.8985L73.7231 86.8991Z" fill="#333B41"/>
<path fill-rule="evenodd" clip-rule="evenodd" d="M34.5278 72.406C35.0807 71.3003 35.6336 70.471 36.4629 70.1945C37.2922 69.9181 37.5687 70.471 38.1216 71.0238C38.6744 71.8532 38.9509 72.1296 39.7802 72.6825C40.0566 72.9589 40.6095 72.9589 40.886 72.9589L40.3331 72.6825C39.5038 72.1296 38.9509 71.5767 39.2273 70.471C39.2273 70.1945 38.9509 69.6416 39.5038 69.6416C40.0566 69.9181 40.886 70.471 41.7153 70.471C41.7153 70.471 42.5446 70.7474 42.2682 70.471C42.2682 70.1945 41.7153 69.9181 41.4388 69.6416C39.7802 68.2594 39.7802 67.983 39.7802 66.0479C40.0566 63.2835 38.9509 61.072 37.0158 59.1369C32.5927 54.7138 34.5278 48.6321 37.8451 42.8269C40.886 37.5745 43.6504 36.7452 40.6095 30.387C39.5038 27.6226 37.5687 24.8582 37.2922 23.1996C37.2922 22.6467 37.2922 22.9231 37.2922 23.1996C37.0158 24.8582 38.1216 27.3462 39.2273 29.8342C41.7153 35.363 41.1624 35.9159 37.5687 40.8918C33.6985 45.8677 30.9341 51.1201 32.5927 56.6489C33.6985 60.5191 39.2273 64.3893 36.4629 66.8772C35.0807 67.983 33.1456 70.7474 32.8692 72.406C32.5927 73.2354 32.5927 73.2354 32.3163 73.7882C32.0399 74.0647 32.3163 74.0647 32.5927 74.0647C33.9749 73.7882 33.9749 73.2354 34.5278 72.406Z" fill="#333B41"/>
<path fill-rule="evenodd" clip-rule="evenodd" d="M53.9924 44.8718C52.4502 45.0843 50.965 45.5763 49.4312 46.0845C48.8046 46.2921 48.17 46.5023 47.5201 46.6973C42.2677 48.6324 39.2269 51.1203 38.1211 54.1612C37.8447 55.5434 37.8447 56.9256 38.3975 58.0314C38.674 59.1371 39.7797 59.9665 40.8855 60.5193H41.1619C42.3999 59.394 43.2255 58.406 44.0117 57.4063C44.16 57.2178 44.3068 57.0289 44.4548 56.8386C45.4497 55.5588 46.4945 54.2148 48.3494 52.5026C45.8777 53.4912 44.0936 55.1675 42.8799 56.4188C42.708 56.596 42.5476 56.7647 42.3982 56.9217C41.833 57.5161 41.4269 57.943 41.1619 58.0314C39.7797 57.7549 39.5033 56.6492 40.0562 54.9905C40.8307 51.8923 44.74 49.7586 51.5588 47.6887C52.041 47.5423 52.5377 47.3962 53.0489 47.2502C53.072 47.7583 53.0546 48.2857 52.9992 48.8256C52.5537 53.1699 49.6518 58.3252 45.6372 60.7643C44.1787 61.6504 42.5733 62.178 40.8855 62.178C40.9147 62.178 40.9899 62.1995 41.1064 62.2328C41.7755 62.4241 43.8048 63.0043 46.2735 62.1318C47.4516 61.7154 48.7298 60.9682 50.008 59.69C53.3009 56.1438 54.2729 51.6693 55.2632 46.2664C55.3267 45.9196 55.3904 45.569 55.4547 45.2146C55.482 45.0645 55.5093 44.9137 55.5369 44.7622C55.0134 44.7622 54.4998 44.8019 53.9924 44.8718Z" fill="#333B41"/>
<path fill-rule="evenodd" clip-rule="evenodd" d="M33.0323 39.6635C33.1566 39.7939 33.2858 39.9264 33.4207 40.0613C33.421 40.0616 33.4214 40.0619 33.4217 40.0623L33.6982 39.7858C33.8606 39.7452 34.0172 39.6986 34.1668 39.6452C35.0357 39.335 35.6739 38.794 35.9097 37.8507C36.4418 36.7866 36.4618 35.7224 35.9697 34.6583C35.9654 34.6489 35.961 34.6395 35.9566 34.63C35.9414 34.5979 35.9258 34.5657 35.9097 34.5335C35.8647 34.3835 35.8148 34.2352 35.76 34.0886C34.804 31.5316 32.3375 29.4826 27.8929 28.1753C27.3813 28.0048 26.893 27.8342 26.4186 27.6685C25.0976 27.2071 23.8834 26.783 22.5684 26.4999C22.0587 26.3901 21.5339 26.3016 20.9819 26.2402C21.0926 26.7663 21.1978 27.2841 21.3008 27.7933C21.3153 27.8647 21.3297 27.9359 21.344 28.0069C21.4711 28.6353 21.5954 29.2505 21.7234 29.8518C22.1299 31.761 22.5734 33.531 23.2574 35.1449C23.8943 36.6475 24.7397 38.0148 25.9578 39.233C26.6382 39.9657 27.3285 40.5002 28.0025 40.8835C29.9426 41.9868 31.7471 41.8365 32.7895 41.5514C33.2977 41.4125 33.6247 41.2415 33.6982 41.168C33.2511 41.1884 32.8115 41.1654 32.3808 41.1032C32.3654 41.101 32.3499 41.0987 32.3345 41.0964C31.0652 40.9047 29.8738 40.3733 28.797 39.6094C27.0391 38.3623 25.5869 36.4956 24.5999 34.4763C23.8861 33.0158 23.4157 31.4755 23.2491 30.032C23.2324 29.887 23.2187 29.743 23.2082 29.6001C23.1792 29.2073 23.1739 28.8233 23.1934 28.4518C23.7061 28.6013 24.2023 28.7508 24.6818 28.9007C30.0726 30.586 33.3612 32.3197 34.3664 34.6453C34.4113 34.7491 34.4516 34.854 34.4873 34.9602C34.5014 35.002 34.5148 35.0441 34.5275 35.0863C34.5431 35.1253 34.5578 35.164 34.5716 35.2025C34.5754 35.2131 34.5791 35.2236 34.5828 35.2342C35.0399 36.5469 34.4878 37.5842 33.4217 37.8507C33.4167 37.8491 33.4116 37.8473 33.4064 37.8454C33.1306 37.744 32.7361 37.3494 32.2033 36.8167C31.118 35.7314 29.4594 34.0727 27.0636 33.1513C29.0419 34.7999 30.0371 36.0552 31.0459 37.3278C31.4688 37.8612 31.894 38.3977 32.3952 38.9675C32.4166 38.9918 32.4381 39.0162 32.4598 39.0406C32.6396 39.2435 32.8294 39.4507 33.0323 39.6635Z" fill="#333B41"/>
<path fill-rule="evenodd" clip-rule="evenodd" d="M50.0063 30.344C47.8442 32.1637 45.7611 32.0144 44.6842 31.7504C44.2057 31.6331 43.9258 31.4932 43.9258 31.4932C44.2693 31.4932 44.6089 31.4629 44.9433 31.405C44.9785 31.3989 45.0136 31.3925 45.0486 31.3858C46.5016 31.108 47.8567 30.3102 49.0235 29.2106C49.3566 28.8967 49.6744 28.5581 49.9747 28.2001C51.4687 26.4189 52.5311 24.1545 52.9029 22.0324C52.9984 21.4872 53.0484 20.9514 53.0484 20.4356C52.9668 20.4578 52.8858 20.4801 52.8054 20.5023C52.3656 20.6239 51.9421 20.7455 51.5346 20.8675C46.8691 22.2644 44.2936 23.7118 43.3183 25.6997C43.2449 25.8494 43.1805 26.0022 43.125 26.1582C43.1152 26.1856 43.1057 26.2132 43.0965 26.2408C42.9527 26.8162 42.9585 27.3167 43.1141 27.7035C43.1605 27.8189 43.2202 27.9241 43.2933 28.0182C43.3576 28.101 43.4322 28.1751 43.5171 28.24C43.5892 28.2949 43.6687 28.3432 43.7556 28.3843C43.8095 28.4098 43.8662 28.4325 43.9258 28.4524C44.2711 28.4524 44.7601 27.9732 45.4327 27.3142C46.3758 26.3902 47.6798 25.1125 49.4547 24.3057C47.875 25.7274 47.0175 26.7881 46.1599 27.8487C45.6323 28.5013 45.1046 29.1539 44.4088 29.8907C44.3826 29.9184 44.3562 29.9462 44.3295 29.9742C44.201 30.1089 44.0668 30.2465 43.9258 30.3874C43.8963 30.38 43.8671 30.3723 43.8383 30.3641C43.1107 30.1575 42.6323 29.705 42.3178 29.1774C42.1795 28.9454 42.0729 28.6989 41.9908 28.4524C41.4797 27.6858 41.441 26.6831 41.6564 25.8808C41.6663 25.8438 41.6768 25.8073 41.6878 25.7712C41.6963 25.7432 41.7052 25.7154 41.7143 25.6879C41.7856 25.4742 41.867 25.2666 41.9588 25.0648C42.9358 22.9171 45.0876 21.4226 48.6253 20.1591C50.2373 19.5546 51.7025 19.097 53.1278 18.7863C53.446 18.7169 53.7622 18.6548 54.0776 18.6001C54.2347 18.5728 54.3916 18.5474 54.5484 18.5238C54.6013 18.5158 54.6542 18.508 54.707 18.5005C54.6532 18.7875 54.6006 19.0722 54.5484 19.3545C54.5454 19.3708 54.5424 19.3871 54.5394 19.4033C54.4984 19.625 54.4577 19.8452 54.417 20.0638C54.3938 20.1882 54.3706 20.3121 54.3473 20.4356C53.7237 23.7415 53.0437 26.6885 51.1383 29.1466C50.9571 29.3804 50.7648 29.6097 50.5604 29.8346C50.3755 30.0194 50.1906 30.1889 50.0063 30.344Z" fill="#333B41"/>
</svg>
