<svg width="128" height="25" viewBox="0 0 128 25" fill="none" xmlns="http://www.w3.org/2000/svg">
<path d="M6.62221 14.6987H3.01057V13.2411H6.62221C7.32163 13.2411 7.88798 13.1297 8.32126 12.9068C8.75453 12.684 9.0702 12.3745 9.26827 11.9784C9.47252 11.5823 9.57465 11.1304 9.57465 10.6229C9.57465 10.1586 9.47252 9.72227 9.26827 9.31376C9.0702 8.90524 8.75453 8.5772 8.32126 8.32961C7.88798 8.07584 7.32163 7.94895 6.62221 7.94895H3.42837V20.0001H1.63647V6.48201H6.62221C7.64349 6.48201 8.50695 6.65842 9.21256 7.01122C9.91818 7.36403 10.4536 7.85301 10.8188 8.47816C11.184 9.09712 11.3665 9.80583 11.3665 10.6043C11.3665 11.4708 11.184 12.2105 10.8188 12.8233C10.4536 13.436 9.91818 13.9034 9.21256 14.2252C8.50695 14.5409 7.64349 14.6987 6.62221 14.6987Z" fill="white"/>
<path d="M17.4107 20.1858C16.7113 20.1858 16.0768 20.0682 15.5074 19.833C14.9441 19.5916 14.4583 19.2543 14.0497 18.821C13.6474 18.3877 13.3379 17.874 13.1213 17.2798C12.9047 16.6856 12.7963 16.0357 12.7963 15.3301V14.9401C12.7963 14.1231 12.917 13.3958 13.1584 12.7583C13.3998 12.1146 13.7279 11.5699 14.1426 11.1242C14.5573 10.6786 15.0277 10.3412 15.5538 10.1122C16.0799 9.8832 16.6246 9.7687 17.1879 9.7687C17.9059 9.7687 18.5248 9.89249 19.0448 10.1401C19.5709 10.3877 20.0011 10.7343 20.3353 11.1799C20.6695 11.6194 20.9171 12.1393 21.0781 12.7397C21.239 13.3339 21.3194 13.9838 21.3194 14.6894V15.46H13.8176V14.0581H19.6018V13.9281C19.5771 13.4825 19.4842 13.0492 19.3233 12.6283C19.1686 12.2074 18.921 11.8608 18.5805 11.5884C18.2401 11.3161 17.7759 11.1799 17.1879 11.1799C16.7979 11.1799 16.4389 11.2635 16.1109 11.4306C15.7828 11.5915 15.5012 11.8329 15.266 12.1548C15.0308 12.4767 14.8482 12.8697 14.7182 13.3339C14.5882 13.7981 14.5232 14.3335 14.5232 14.9401V15.3301C14.5232 15.8067 14.5882 16.2554 14.7182 16.6763C14.8544 17.091 15.0494 17.4562 15.3031 17.7719C15.5631 18.0875 15.8757 18.3351 16.2409 18.5146C16.6122 18.6941 17.0331 18.7839 17.5035 18.7839C18.1101 18.7839 18.6239 18.6601 19.0448 18.4125C19.4657 18.1649 19.8339 17.8338 20.1496 17.4191L21.1895 18.2454C20.9728 18.5734 20.6974 18.886 20.3631 19.1831C20.0289 19.4802 19.6173 19.7216 19.1283 19.9073C18.6455 20.093 18.073 20.1858 17.4107 20.1858Z" fill="white"/>
<path d="M27.5307 9.95438V11.2728H22.0993V9.95438H27.5307ZM23.9377 7.51258H25.6553V17.5119C25.6553 17.8523 25.7079 18.1092 25.8131 18.2825C25.9183 18.4558 26.0545 18.5703 26.2216 18.626C26.3887 18.6817 26.5682 18.7096 26.7601 18.7096C26.9025 18.7096 27.051 18.6972 27.2058 18.6725C27.3667 18.6415 27.4874 18.6167 27.5679 18.5982L27.5771 20.0001C27.441 20.0435 27.2615 20.0837 27.0386 20.1208C26.822 20.1642 26.559 20.1858 26.2495 20.1858C25.8286 20.1858 25.4417 20.1023 25.0889 19.9351C24.7361 19.768 24.4545 19.4895 24.244 19.0995C24.0398 18.7034 23.9377 18.1711 23.9377 17.5026V7.51258Z" fill="white"/>
<path d="M37.0101 16.5835C37.0101 16.2678 36.9606 15.9893 36.8616 15.7479C36.7687 15.5003 36.6016 15.2775 36.3602 15.0794C36.125 14.8813 35.7969 14.6925 35.3761 14.513C34.9613 14.3335 34.4352 14.1509 33.7977 13.9653C33.1292 13.7672 32.5257 13.5475 31.9872 13.3061C31.4487 13.0585 30.9876 12.7768 30.6039 12.4612C30.2201 12.1455 29.9261 11.7834 29.7218 11.3749C29.5176 10.9664 29.4155 10.4991 29.4155 9.97295C29.4155 9.44684 29.5238 8.96095 29.7404 8.5153C29.9571 8.06965 30.2665 7.6828 30.6689 7.35475C31.0774 7.02051 31.5633 6.76054 32.1265 6.57486C32.6898 6.38917 33.318 6.29632 34.0112 6.29632C35.0263 6.29632 35.8867 6.4913 36.5923 6.88124C37.3041 7.265 37.8457 7.76945 38.2171 8.3946C38.5885 9.01356 38.7742 9.67585 38.7742 10.3815H36.9915C36.9915 9.87392 36.8832 9.42517 36.6666 9.03523C36.45 8.63909 36.1219 8.32961 35.6824 8.10678C35.243 7.87777 34.6859 7.76326 34.0112 7.76326C33.3737 7.76326 32.8476 7.8592 32.4329 8.05108C32.0182 8.24296 31.7087 8.50292 31.5045 8.83097C31.3064 9.15902 31.2074 9.53349 31.2074 9.95438C31.2074 10.2391 31.2662 10.4991 31.3838 10.7343C31.5075 10.9633 31.6963 11.1768 31.9501 11.3749C32.2101 11.573 32.5381 11.7556 32.9343 11.9227C33.3366 12.0898 33.8163 12.2507 34.3733 12.4055C35.1408 12.6221 35.8031 12.8635 36.3602 13.1297C36.9173 13.3958 37.3753 13.696 37.7343 14.0302C38.0995 14.3583 38.3687 14.7328 38.542 15.1537C38.7215 15.5684 38.8113 16.0388 38.8113 16.5649C38.8113 17.1158 38.6999 17.614 38.4771 18.0597C38.2542 18.5053 37.9355 18.886 37.5208 19.2017C37.1061 19.5173 36.6078 19.7618 36.026 19.9351C35.4503 20.1023 34.8066 20.1858 34.0948 20.1858C33.4697 20.1858 32.8538 20.0992 32.2472 19.9259C31.6468 19.7525 31.099 19.4926 30.6039 19.146C30.1149 18.7993 29.7218 18.3723 29.4247 17.8647C29.1338 17.351 28.9884 16.7568 28.9884 16.0821H30.771C30.771 16.5463 30.8607 16.9456 31.0402 17.2798C31.2197 17.6078 31.4642 17.8802 31.7737 18.0968C32.0894 18.3135 32.4453 18.4744 32.8414 18.5796C33.2437 18.6786 33.6615 18.7282 34.0948 18.7282C34.72 18.7282 35.2492 18.6415 35.6824 18.4682C36.1157 18.2949 36.4438 18.0473 36.6666 17.7254C36.8956 17.4036 37.0101 17.0229 37.0101 16.5835Z" fill="white"/>
<path d="M45.0411 9.95438V11.2728H39.6098V9.95438H45.0411ZM41.4481 7.51258H43.1657V17.5119C43.1657 17.8523 43.2183 18.1092 43.3235 18.2825C43.4287 18.4558 43.5649 18.5703 43.732 18.626C43.8992 18.6817 44.0787 18.7096 44.2705 18.7096C44.4129 18.7096 44.5614 18.6972 44.7162 18.6725C44.8771 18.6415 44.9978 18.6167 45.0783 18.5982L45.0876 20.0001C44.9514 20.0435 44.7719 20.0837 44.5491 20.1208C44.3324 20.1642 44.0694 20.1858 43.7599 20.1858C43.339 20.1858 42.9521 20.1023 42.5993 19.9351C42.2465 19.768 41.9649 19.4895 41.7545 19.0995C41.5502 18.7034 41.4481 18.1711 41.4481 17.5026V7.51258Z" fill="white"/>
<path d="M46.4152 15.0887V14.8751C46.4152 14.1509 46.5205 13.4794 46.7309 12.8604C46.9414 12.2353 47.2446 11.6937 47.6408 11.2356C48.0369 10.7714 48.5166 10.4124 49.0799 10.1586C49.6431 9.89868 50.2745 9.7687 50.9739 9.7687C51.6795 9.7687 52.3139 9.89868 52.8772 10.1586C53.4466 10.4124 53.9294 10.7714 54.3256 11.2356C54.7279 11.6937 55.0343 12.2353 55.2447 12.8604C55.4552 13.4794 55.5604 14.1509 55.5604 14.8751V15.0887C55.5604 15.8129 55.4552 16.4844 55.2447 17.1034C55.0343 17.7223 54.7279 18.2639 54.3256 18.7282C53.9294 19.1862 53.4497 19.5452 52.8865 19.8052C52.3294 20.0589 51.6981 20.1858 50.9925 20.1858C50.2868 20.1858 49.6524 20.0589 49.0891 19.8052C48.5259 19.5452 48.0431 19.1862 47.6408 18.7282C47.2446 18.2639 46.9414 17.7223 46.7309 17.1034C46.5205 16.4844 46.4152 15.8129 46.4152 15.0887ZM48.1329 14.8751V15.0887C48.1329 15.59 48.1917 16.0635 48.3093 16.5092C48.4269 16.9486 48.6033 17.3386 48.8385 17.679C49.0799 18.0195 49.3801 18.2887 49.7391 18.4868C50.0981 18.6786 50.5159 18.7746 50.9925 18.7746C51.4629 18.7746 51.8745 18.6786 52.2273 18.4868C52.5863 18.2887 52.8834 18.0195 53.1186 17.679C53.3538 17.3386 53.5302 16.9486 53.6478 16.5092C53.7716 16.0635 53.8335 15.59 53.8335 15.0887V14.8751C53.8335 14.38 53.7716 13.9126 53.6478 13.4732C53.5302 13.0275 53.3507 12.6345 53.1093 12.2941C52.8741 11.9474 52.577 11.6751 52.218 11.477C51.8652 11.279 51.4505 11.1799 50.9739 11.1799C50.5035 11.1799 50.0888 11.279 49.7298 11.477C49.377 11.6751 49.0799 11.9474 48.8385 12.2941C48.6033 12.6345 48.4269 13.0275 48.3093 13.4732C48.1917 13.9126 48.1329 14.38 48.1329 14.8751Z" fill="white"/>
<path d="M59.432 11.5327V20.0001H57.7144V9.95438H59.3856L59.432 11.5327ZM62.5701 9.89868L62.5608 11.4956C62.4185 11.4646 62.2823 11.4461 62.1523 11.4399C62.0285 11.4275 61.8862 11.4213 61.7252 11.4213C61.3291 11.4213 60.9794 11.4832 60.6761 11.607C60.3728 11.7308 60.1159 11.9041 59.9055 12.1269C59.695 12.3498 59.5279 12.6159 59.4041 12.9254C59.2865 13.2287 59.2092 13.5629 59.172 13.9281L58.6892 14.2066C58.6892 13.6001 58.748 13.0306 58.8656 12.4983C58.9894 11.966 59.1782 11.4956 59.432 11.0871C59.6858 10.6724 60.0076 10.3505 60.3976 10.1215C60.7937 9.8863 61.2641 9.7687 61.8088 9.7687C61.9326 9.7687 62.075 9.78417 62.2359 9.81512C62.3968 9.83988 62.5082 9.86773 62.5701 9.89868Z" fill="white"/>
<path d="M67.1473 18.9603L69.942 9.95438H71.7803L67.7508 21.5506C67.658 21.7982 67.5342 22.0644 67.3795 22.3491C67.2309 22.64 67.039 22.9154 66.8038 23.1754C66.5686 23.4354 66.2839 23.6458 65.9497 23.8067C65.6216 23.9739 65.2286 24.0574 64.7705 24.0574C64.6344 24.0574 64.461 24.0389 64.2506 24.0017C64.0402 23.9646 63.8916 23.9336 63.805 23.9089L63.7957 22.5162C63.8452 22.5224 63.9226 22.5286 64.0278 22.5348C64.1392 22.5472 64.2166 22.5533 64.2599 22.5533C64.6498 22.5533 64.981 22.5007 65.2533 22.3955C65.5257 22.2965 65.7547 22.1263 65.9404 21.8849C66.1322 21.6497 66.2963 21.3247 66.4324 20.91L67.1473 18.9603ZM65.0955 9.95438L67.7044 17.7533L68.1501 19.5638L66.9152 20.1951L63.22 9.95438H65.0955Z" fill="white"/>
<path d="M77.5923 15.0887V14.8751C77.5923 14.1509 77.6975 13.4794 77.908 12.8604C78.1184 12.2353 78.4217 11.6937 78.8179 11.2356C79.214 10.7714 79.6937 10.4124 80.2569 10.1586C80.8202 9.89868 81.4515 9.7687 82.151 9.7687C82.8566 9.7687 83.491 9.89868 84.0543 10.1586C84.6237 10.4124 85.1065 10.7714 85.5026 11.2356C85.905 11.6937 86.2113 12.2353 86.4218 12.8604C86.6322 13.4794 86.7375 14.1509 86.7375 14.8751V15.0887C86.7375 15.8129 86.6322 16.4844 86.4218 17.1034C86.2113 17.7223 85.905 18.2639 85.5026 18.7282C85.1065 19.1862 84.6268 19.5452 84.0636 19.8052C83.5065 20.0589 82.8751 20.1858 82.1695 20.1858C81.4639 20.1858 80.8295 20.0589 80.2662 19.8052C79.703 19.5452 79.2202 19.1862 78.8179 18.7282C78.4217 18.2639 78.1184 17.7223 77.908 17.1034C77.6975 16.4844 77.5923 15.8129 77.5923 15.0887ZM79.3099 14.8751V15.0887C79.3099 15.59 79.3687 16.0635 79.4863 16.5092C79.6039 16.9486 79.7803 17.3386 80.0155 17.679C80.2569 18.0195 80.5571 18.2887 80.9161 18.4868C81.2751 18.6786 81.6929 18.7746 82.1695 18.7746C82.6399 18.7746 83.0515 18.6786 83.4044 18.4868C83.7634 18.2887 84.0605 18.0195 84.2957 17.679C84.5309 17.3386 84.7073 16.9486 84.8249 16.5092C84.9487 16.0635 85.0106 15.59 85.0106 15.0887V14.8751C85.0106 14.38 84.9487 13.9126 84.8249 13.4732C84.7073 13.0275 84.5278 12.6345 84.2864 12.2941C84.0512 11.9474 83.7541 11.6751 83.3951 11.477C83.0423 11.279 82.6276 11.1799 82.151 11.1799C81.6806 11.1799 81.2658 11.279 80.9068 11.477C80.554 11.6751 80.2569 11.9474 80.0155 12.2941C79.7803 12.6345 79.6039 13.0275 79.4863 13.4732C79.3687 13.9126 79.3099 14.38 79.3099 14.8751Z" fill="white"/>
<path d="M90.6091 12.0991V20.0001H88.8915V9.95438H90.5162L90.6091 12.0991ZM90.2006 14.5966L89.4857 14.5687C89.4918 13.8817 89.594 13.2473 89.792 12.6654C89.9901 12.0774 90.2686 11.5668 90.6276 11.1335C90.9866 10.7002 91.4137 10.366 91.9089 10.1308C92.4102 9.88939 92.9642 9.7687 93.5708 9.7687C94.066 9.7687 94.5116 9.83678 94.9078 9.97295C95.3039 10.1029 95.6412 10.3134 95.9198 10.6043C96.2045 10.8952 96.4211 11.2728 96.5697 11.737C96.7182 12.195 96.7925 12.7552 96.7925 13.4175V20.0001H95.0656V13.3989C95.0656 12.8728 94.9882 12.4519 94.8335 12.1362C94.6787 11.8144 94.4528 11.5823 94.1557 11.4399C93.8586 11.2913 93.4934 11.2171 93.0602 11.2171C92.6331 11.2171 92.2431 11.3068 91.8903 11.4863C91.5437 11.6658 91.2435 11.9134 90.9897 12.2291C90.7421 12.5447 90.5472 12.9068 90.4048 13.3153C90.2686 13.7177 90.2006 14.1448 90.2006 14.5966Z" fill="white"/>
<path d="M101.268 5.73926V20.0001H99.5407V5.73926H101.268Z" fill="white"/>
<path d="M105.891 9.95438V20.0001H104.164V9.95438H105.891ZM104.034 7.28976C104.034 7.01122 104.118 6.77602 104.285 6.58414C104.458 6.39226 104.712 6.29632 105.046 6.29632C105.374 6.29632 105.625 6.39226 105.798 6.58414C105.978 6.77602 106.068 7.01122 106.068 7.28976C106.068 7.55591 105.978 7.78492 105.798 7.9768C105.625 8.16249 105.374 8.25534 105.046 8.25534C104.712 8.25534 104.458 8.16249 104.285 7.9768C104.118 7.78492 104.034 7.55591 104.034 7.28976Z" fill="white"/>
<path d="M110.366 12.0991V20.0001H108.649V9.95438H110.273L110.366 12.0991ZM109.958 14.5966L109.243 14.5687C109.249 13.8817 109.351 13.2473 109.549 12.6654C109.747 12.0774 110.026 11.5668 110.385 11.1335C110.744 10.7002 111.171 10.366 111.666 10.1308C112.167 9.88939 112.721 9.7687 113.328 9.7687C113.823 9.7687 114.269 9.83678 114.665 9.97295C115.061 10.1029 115.398 10.3134 115.677 10.6043C115.962 10.8952 116.178 11.2728 116.327 11.737C116.475 12.195 116.55 12.7552 116.55 13.4175V20.0001H114.823V13.3989C114.823 12.8728 114.745 12.4519 114.591 12.1362C114.436 11.8144 114.21 11.5823 113.913 11.4399C113.616 11.2913 113.251 11.2171 112.817 11.2171C112.39 11.2171 112 11.3068 111.648 11.4863C111.301 11.6658 111.001 11.9134 110.747 12.2291C110.499 12.5447 110.304 12.9068 110.162 13.3153C110.026 13.7177 109.958 14.1448 109.958 14.5966Z" fill="white"/>
<path d="M123.327 20.1858C122.628 20.1858 121.994 20.0682 121.424 19.833C120.861 19.5916 120.375 19.2543 119.966 18.821C119.564 18.3877 119.255 17.874 119.038 17.2798C118.821 16.6856 118.713 16.0357 118.713 15.3301V14.9401C118.713 14.1231 118.834 13.3958 119.075 12.7583C119.316 12.1146 119.645 11.5699 120.059 11.1242C120.474 10.6786 120.944 10.3412 121.47 10.1122C121.997 9.8832 122.541 9.7687 123.105 9.7687C123.823 9.7687 124.441 9.89249 124.961 10.1401C125.488 10.3877 125.918 10.7343 126.252 11.1799C126.586 11.6194 126.834 12.1393 126.995 12.7397C127.156 13.3339 127.236 13.9838 127.236 14.6894V15.46H119.734V14.0581H125.518V13.9281C125.494 13.4825 125.401 13.0492 125.24 12.6283C125.085 12.2074 124.838 11.8608 124.497 11.5884C124.157 11.3161 123.693 11.1799 123.105 11.1799C122.715 11.1799 122.356 11.2635 122.028 11.4306C121.7 11.5915 121.418 11.8329 121.183 12.1548C120.947 12.4767 120.765 12.8697 120.635 13.3339C120.505 13.7981 120.44 14.3335 120.44 14.9401V15.3301C120.44 15.8067 120.505 16.2554 120.635 16.6763C120.771 17.091 120.966 17.4562 121.22 17.7719C121.48 18.0875 121.792 18.3351 122.158 18.5146C122.529 18.6941 122.95 18.7839 123.42 18.7839C124.027 18.7839 124.541 18.6601 124.961 18.4125C125.382 18.1649 125.751 17.8338 126.066 17.4191L127.106 18.2454C126.889 18.5734 126.614 18.886 126.28 19.1831C125.946 19.4802 125.534 19.7216 125.045 19.9073C124.562 20.093 123.99 20.1858 123.327 20.1858Z" fill="white"/>
<path fill-rule="evenodd" clip-rule="evenodd" d="M80.6723 15.8418C80.8527 16.2367 80.8527 16.2367 80.6723 15.8418V15.8418V15.8418ZM82.7454 19.4705C83.0316 19.3069 83.3068 18.5773 83.1619 18.282C82.6567 17.2525 82.2854 16.1463 81.9255 15.0337C81.8595 14.8296 81.7634 14.6271 81.5875 14.5255C81.368 14.3988 81.1705 14.4396 80.9793 14.5283C80.8248 14.6 80.6895 14.7143 80.5554 14.8257C80.1472 15.1648 79.8138 15.3156 80.0347 15.6239C80.1592 15.7976 80.3173 15.9419 80.4267 16.1274C81.0246 17.1413 81.4856 18.1128 81.845 19.1191C81.9813 19.5006 82.3964 19.67 82.7454 19.4705V19.4705V19.4705ZM78.5141 11.1157C78.6944 11.5106 78.6944 11.5106 78.5141 11.1157V11.1157V11.1157ZM77.85 9.66149V9.66149C77.6828 8.8401 76.8539 7.48019 76.3558 6.38955C76.8539 7.48019 77.2689 8.38907 77.933 9.84326L77.85 9.66149V9.66149ZM78.5097 9.9031C78.7413 9.59388 78.9874 9.1077 78.8213 8.77411C78.3675 7.86261 77.9988 6.79364 77.6071 5.62892C77.4886 5.27658 77.2686 4.89095 76.9192 4.97475C76.8334 4.99533 76.7477 5.03104 76.6619 5.07384C76.5091 5.1501 76.373 5.26199 76.2389 5.37342C75.8249 5.71736 75.4879 5.86756 75.7278 6.18473C75.8498 6.34604 75.9993 6.48324 76.1046 6.65804C76.6779 7.6092 77.1937 8.71296 77.5727 9.79551C77.6829 10.1102 78.0248 10.2492 78.3119 10.0851C78.3181 10.0815 78.3243 10.078 78.3303 10.0746C78.3951 10.0375 78.4635 9.9648 78.5097 9.9031V9.9031ZM75.7747 5.11713C75.7196 4.99636 75.6802 4.86795 75.6425 4.73883C75.4003 3.90855 74.6577 2.67106 74.1975 1.66341C74.6956 2.75406 75.1106 3.66293 75.7747 5.11713V5.11713ZM76.3529 5.01712C76.6488 4.85577 76.854 4.42454 76.7016 4.12467C76.23 3.19666 75.8516 2.10033 75.4488 0.902788C75.3303 0.550446 75.1104 0.164815 74.761 0.248617C74.6752 0.2692 74.5894 0.30491 74.5036 0.347703C74.3508 0.423966 74.2157 0.537798 74.0767 0.641714C73.614 0.987471 73.2078 1.0279 73.6295 1.50894C73.7275 1.62071 73.8258 1.73401 73.9044 1.8627C74.5009 2.83992 75.0379 3.98535 75.4272 5.10592C75.5299 5.40161 75.8789 5.55982 76.079 5.30988C76.088 5.29866 76.0966 5.28722 76.1049 5.27557C76.1731 5.1795 76.2532 5.07151 76.3529 5.01712V5.01712ZM76.7776 10.0454C76.1169 9.96474 75.621 9.78977 74.9603 9.70908C75.621 9.78977 76.0338 9.78297 76.7776 10.0454C76.6927 10.0155 76.6096 9.98616 76.5281 9.95749C76.3192 9.88401 76.3209 9.88425 76.5297 9.95794V9.95794C75.455 9.42622 74.5464 9.25804 73.7196 8.8138C74.4634 9.07627 75.2071 9.33873 76.2818 9.87046C75.372 9.24444 74.3804 8.89449 73.3887 8.54454C74.3804 8.89449 75.455 9.42622 76.7776 10.0454C77.0255 10.1329 77.0255 10.1329 76.7776 10.0454ZM76.4478 10.234L76.1999 10.1465V10.1465V10.1465C76.0629 10.1488 75.9279 10.1499 75.7948 10.1502C75.337 10.1513 75.3292 10.2032 75.7871 10.1533V10.1533V10.1533C75.4393 10.1912 75.4454 10.3048 75.7932 10.2671C75.8737 10.2584 75.9543 10.2496 76.035 10.2408C75.2093 10.2544 74.4667 10.4498 73.7241 10.6451C74.016 10.6134 74.2864 10.574 74.5437 10.5339C74.702 10.5092 74.7078 10.6039 74.5497 10.6315V10.6315C75.1275 10.5305 75.7052 10.4294 76.2829 10.3283V10.3283C76.4478 10.234 76.4478 10.234 76.4478 10.234ZM76.9458 11.3247C76.616 11.5132 76.3693 11.8836 75.8746 12.1664C76.2044 11.9779 76.4511 11.6075 76.9458 11.3247C76.4511 11.6075 75.8746 12.1664 75.3799 12.4493C75.8746 12.1664 76.2862 11.7018 76.7809 11.4189C76.1213 11.7961 75.4617 12.1732 74.8852 12.7322C75.2968 12.2675 75.9564 11.8904 76.616 11.5132C75.9564 11.8904 75.2968 12.2675 74.6372 12.6447C75.2968 12.2675 76.0383 11.6143 76.8628 11.1429C77.0277 11.0486 77.1107 11.2304 76.9458 11.3247ZM77.0289 11.5064V11.5064C76.92 11.5687 76.8225 11.6529 76.7432 11.7552C76.1448 12.5273 75.6915 13.2165 75.3832 13.8228C75.4096 13.771 75.437 13.7185 75.4654 13.6656C75.6218 13.374 75.6982 13.4333 75.5481 13.7285V13.7285C75.8768 13.0821 76.3704 12.3414 76.6991 11.695C76.3704 12.3414 76.2066 12.8935 75.9598 13.2639C76.1134 13.0333 76.2988 12.6959 76.4961 12.318C76.5411 12.2319 76.5632 12.3538 76.5214 12.4416V12.4416C76.4822 12.524 76.5432 12.4414 76.5709 12.3543C76.6474 12.1131 76.7027 11.8644 76.8368 11.6434C76.854 11.615 76.8785 11.5924 76.9063 11.5765L77.0289 11.5064ZM77.4405 11.0418C77.4503 11.0362 77.4595 11.0309 77.4682 11.026C77.6351 10.9306 77.7877 10.9984 77.9569 11.0692V11.0692C78.023 11.0968 78.1223 11.1568 78.1607 11.2205C78.8374 12.3433 79.3454 13.4091 79.7319 14.5212C79.8414 14.8362 80.1831 14.9754 80.4701 14.8112C80.4764 14.8077 80.4825 14.8042 80.4886 14.8007C80.5533 14.7637 80.6218 14.6909 80.668 14.6292V14.6292C80.8996 14.32 81.1456 13.8338 80.9796 13.5002C80.5258 12.5887 80.1571 11.5198 79.7653 10.3551C79.6468 10.0027 79.4269 9.61708 79.0775 9.70089C78.9379 9.73438 78.7983 9.80795 78.6587 9.88691C78.6156 9.91129 78.5767 9.94395 78.5415 9.98052C78.4145 10.1125 78.2887 10.2037 78.1739 10.2756C77.9793 10.3975 77.3684 10.4285 77.2734 10.2204V10.2204C77.2063 10.0734 77.0312 9.98802 76.7477 9.72205C76.5976 9.58123 76.4363 9.45319 76.2521 9.36815C75.4744 9.00915 74.4597 8.63357 73.6418 8.39445C73.3085 8.29702 72.9474 8.42938 73.2238 8.64517V8.64517C73.5924 8.93293 73.6032 9.93216 73.1416 10.0369C73.0885 10.0489 73.0361 10.0616 72.9844 10.075C72.6262 10.1681 72.6273 10.564 72.9865 10.6102C74.1985 10.766 76.1319 10.6413 76.8849 10.4267C76.9249 10.4153 76.9621 10.3962 77.0027 10.3882C77.014 10.386 77.0263 10.3845 77.0393 10.3845C77.1671 10.3846 77.259 10.5179 77.3769 10.5644C77.4011 10.5739 77.4248 10.5837 77.448 10.5938C77.6594 10.6862 77.6284 10.9829 77.3958 10.9889V10.9889C77.2803 10.9918 77.1338 10.988 77.0296 11.0475C76.9685 11.0825 76.8901 11.1273 76.7946 11.1819C76.7304 11.2186 76.663 11.2477 76.5945 11.2723C75.8803 11.5289 75.0821 12.1 74.5092 12.5936C74.3405 12.7388 74.2658 12.9782 74.4759 12.9512V12.9512C74.7954 12.9102 75.3999 13.4839 75.2347 13.7883V13.7883C75.1135 14.0116 75.3049 14.1218 75.4863 13.951C76.0764 13.3954 76.7529 12.3049 77.009 11.6118C77.0946 11.3801 77.2352 11.1592 77.4405 11.0418V11.0418Z" fill="white"/>
</svg>
