<svg width="82" height="52" viewBox="0 0 82 52" fill="none" xmlns="http://www.w3.org/2000/svg">
<path d="M8.37483 16.2532V21.5454H6.59222V8.02724H11.578C13.0573 8.02724 14.2147 8.40481 15.0503 9.15994C15.8921 9.91507 16.313 10.9147 16.313 12.1588C16.313 13.471 15.9014 14.483 15.0782 15.1948C14.2612 15.9004 13.0882 16.2532 11.5594 16.2532H8.37483ZM8.37483 14.7956H11.578C12.5312 14.7956 13.2615 14.5728 13.7691 14.1271C14.2766 13.6753 14.5304 13.0254 14.5304 12.1774C14.5304 11.3727 14.2766 10.729 13.7691 10.2462C13.2615 9.76343 12.5652 9.51275 11.6801 9.49418H8.37483V14.7956Z" fill="white"/>
<path d="M22.3572 21.731C20.9955 21.731 19.8875 21.2854 19.0333 20.3941C18.1792 19.4966 17.7521 18.2989 17.7521 16.801V16.4853C17.7521 15.4888 17.9409 14.6006 18.3184 13.8207C18.7022 13.0346 19.2345 12.4219 19.9154 11.9824C20.6024 11.5368 21.3452 11.3139 22.1436 11.3139C23.4496 11.3139 24.4647 11.7441 25.1889 12.6045C25.9131 13.4648 26.2752 14.6965 26.2752 16.2997V17.0146H19.4697C19.4945 18.0049 19.7823 18.8065 20.3332 19.4192C20.8902 20.0258 21.5958 20.3291 22.45 20.3291C23.0566 20.3291 23.5703 20.2053 23.9912 19.9577C24.4121 19.7101 24.7804 19.3821 25.0961 18.9736L26.1452 19.7906C25.3034 21.0842 24.0407 21.731 22.3572 21.731ZM22.1436 12.7252C21.4504 12.7252 20.8686 12.9789 20.3982 13.4865C19.9277 13.9878 19.6368 14.6935 19.5254 15.6033H24.5576V15.4733C24.5081 14.6006 24.2729 13.9259 23.852 13.4493C23.4311 12.9666 22.8616 12.7252 22.1436 12.7252Z" fill="white"/>
<path d="M30.6017 9.0671V11.4996H32.4772V12.8273H30.6017V19.0571C30.6017 19.4595 30.6853 19.7627 30.8524 19.967C31.0195 20.1651 31.3043 20.2641 31.7066 20.2641C31.9046 20.2641 32.177 20.227 32.5236 20.1527V21.5454C32.0718 21.6691 31.6323 21.731 31.2052 21.731C30.4377 21.731 29.859 21.4989 29.469 21.0347C29.0791 20.5705 28.8841 19.9113 28.8841 19.0571V12.8273H27.0551V11.4996H28.8841V9.0671H30.6017Z" fill="white"/>
<path d="M38.7442 15.5198C37.2153 15.0803 36.1012 14.5418 35.4018 13.9043C34.7085 13.2606 34.3619 12.4683 34.3619 11.5275C34.3619 10.4629 34.7859 9.58393 35.6339 8.89069C36.4881 8.19127 37.596 7.84155 38.9577 7.84155C39.8862 7.84155 40.7125 8.02105 41.4367 8.38005C42.167 8.73905 42.7303 9.23422 43.1264 9.86556C43.5287 10.4969 43.7299 11.187 43.7299 11.936H41.938C41.938 11.119 41.678 10.4783 41.1581 10.0141C40.6382 9.5437 39.9047 9.30849 38.9577 9.30849C38.0788 9.30849 37.3917 9.50346 36.8966 9.89341C36.4076 10.2772 36.1631 10.8126 36.1631 11.4996C36.1631 12.0505 36.3952 12.5178 36.8594 12.9016C37.3298 13.2791 38.1252 13.6257 39.2455 13.9414C40.372 14.2571 41.251 14.6068 41.8823 14.9906C42.5198 15.3681 42.9902 15.8107 43.2935 16.3182C43.603 16.8258 43.7578 17.4231 43.7578 18.1101C43.7578 19.2057 43.3307 20.0846 42.4765 20.7469C41.6223 21.403 40.4804 21.731 39.0506 21.731C38.1221 21.731 37.2556 21.5546 36.4509 21.2018C35.6463 20.8428 35.0242 20.3539 34.5847 19.7349C34.1515 19.1159 33.9348 18.4134 33.9348 17.6273H35.7267C35.7267 18.4444 36.0269 19.0912 36.6273 19.5678C37.2339 20.0382 38.0416 20.2734 39.0506 20.2734C39.9914 20.2734 40.7125 20.0815 41.2138 19.6978C41.7152 19.314 41.9659 18.791 41.9659 18.1287C41.9659 17.4664 41.7338 16.9558 41.2695 16.5968C40.8053 16.2316 39.9635 15.8726 38.7442 15.5198Z" fill="white"/>
<path d="M48.1122 9.0671V11.4996H49.9876V12.8273H48.1122V19.0571C48.1122 19.4595 48.1957 19.7627 48.3628 19.967C48.53 20.1651 48.8147 20.2641 49.217 20.2641C49.4151 20.2641 49.6874 20.227 50.034 20.1527V21.5454C49.5822 21.6691 49.1427 21.731 48.7156 21.731C47.9481 21.731 47.3694 21.4989 46.9795 21.0347C46.5895 20.5705 46.3945 19.9113 46.3945 19.0571V12.8273H44.5655V11.4996H46.3945V9.0671H48.1122Z" fill="white"/>
<path d="M51.3617 16.4296C51.3617 15.4455 51.5536 14.5604 51.9373 13.7743C52.3273 12.9882 52.8658 12.3816 53.5528 11.9546C54.2461 11.5275 55.0352 11.3139 55.9203 11.3139C57.2883 11.3139 58.3931 11.7874 59.2349 12.7344C60.0829 13.6815 60.5069 14.941 60.5069 16.5132V16.6339C60.5069 17.6119 60.3181 18.4908 59.9405 19.2707C59.5691 20.0444 59.0337 20.6479 58.3343 21.0811C57.6411 21.5144 56.8426 21.731 55.9389 21.731C54.5772 21.731 53.4724 21.2575 52.6244 20.3105C51.7826 19.3635 51.3617 18.1101 51.3617 16.5503V16.4296ZM53.0886 16.6339C53.0886 17.748 53.3455 18.6424 53.8592 19.3171C54.3791 19.9918 55.0724 20.3291 55.9389 20.3291C56.8117 20.3291 57.5049 19.9887 58.0186 19.3078C58.5324 18.6208 58.7892 17.6614 58.7892 16.4296C58.7892 15.3279 58.5262 14.4366 58.0001 13.7557C57.4801 13.0687 56.7869 12.7252 55.9203 12.7252C55.0724 12.7252 54.3884 13.0625 53.8685 13.7372C53.3486 14.4118 53.0886 15.3774 53.0886 16.6339Z" fill="white"/>
<path d="M67.5166 13.0408C67.2566 12.9975 66.975 12.9758 66.6717 12.9758C65.5452 12.9758 64.7808 13.4555 64.3785 14.4149V21.5454H62.6608V11.4996H64.332L64.3599 12.6602C64.9231 11.7627 65.7216 11.3139 66.7553 11.3139C67.0895 11.3139 67.3433 11.3573 67.5166 11.4439V13.0408Z" fill="white"/>
<path d="M72.558 19.0293L74.8977 11.4996H76.736L72.6973 23.0959C72.0721 24.7671 71.0787 25.6026 69.717 25.6026L69.392 25.5748L68.7514 25.4541V24.0614L69.2156 24.0986C69.7975 24.0986 70.2493 23.981 70.5712 23.7458C70.8992 23.5106 71.1685 23.0804 71.3789 22.4552L71.7596 21.4339L68.1758 11.4996H70.0512L72.558 19.0293Z" fill="white"/>
<path d="M16.2666 39.4296C16.2666 38.4455 16.4585 37.5604 16.8422 36.7743C17.2322 35.9882 17.7707 35.3816 18.4577 34.9546C19.1509 34.5275 19.9401 34.3139 20.8252 34.3139C22.1931 34.3139 23.298 34.7874 24.1398 35.7344C24.9878 36.6815 25.4117 37.941 25.4117 39.5132V39.6339C25.4117 40.6119 25.223 41.4908 24.8454 42.2707C24.474 43.0444 23.9386 43.6479 23.2392 44.0811C22.546 44.5144 21.7475 44.731 20.8438 44.731C19.4821 44.731 18.3772 44.2575 17.5293 43.3105C16.6875 42.3635 16.2666 41.1101 16.2666 39.5503V39.4296ZM17.9935 39.6339C17.9935 40.748 18.2504 41.6424 18.7641 42.3171C19.284 42.9918 19.9773 43.3291 20.8438 43.3291C21.7165 43.3291 22.4098 42.9887 22.9235 42.3078C23.4373 41.6208 23.6941 40.6614 23.6941 39.4296C23.6941 38.3279 23.4311 37.4366 22.9049 36.7557C22.385 36.0687 21.6918 35.7252 20.8252 35.7252C19.9773 35.7252 19.2933 36.0625 18.7734 36.7372C18.2535 37.4118 17.9935 38.3774 17.9935 39.6339Z" fill="white"/>
<path d="M29.1905 34.4996L29.2462 35.7623C30.0137 34.7967 31.0164 34.3139 32.2544 34.3139C34.3774 34.3139 35.4482 35.5116 35.4668 37.907V44.5454H33.7492V37.8977C33.743 37.1735 33.5758 36.6381 33.2478 36.2915C32.9259 35.9449 32.4215 35.7716 31.7344 35.7716C31.1774 35.7716 30.6884 35.9201 30.2675 36.2172C29.8466 36.5143 29.5186 36.9043 29.2833 37.3871V44.5454H27.5657V34.4996H29.1905Z" fill="white"/>
<path d="M39.9233 44.5454H38.2057V30.2845H39.9233V44.5454Z" fill="white"/>
<path d="M44.5469 44.5454H42.8293V34.4996H44.5469V44.5454ZM42.69 31.835C42.69 31.5565 42.7736 31.3212 42.9407 31.1294C43.114 30.9375 43.3678 30.8416 43.702 30.8416C44.0363 30.8416 44.2901 30.9375 44.4634 31.1294C44.6367 31.3212 44.7233 31.5565 44.7233 31.835C44.7233 32.1135 44.6367 32.3456 44.4634 32.5313C44.2901 32.717 44.0363 32.8099 43.702 32.8099C43.3678 32.8099 43.114 32.717 42.9407 32.5313C42.7736 32.3456 42.69 32.1135 42.69 31.835Z" fill="white"/>
<path d="M48.9292 34.4996L48.9849 35.7623C49.7524 34.7967 50.7551 34.3139 51.993 34.3139C54.1161 34.3139 55.1869 35.5116 55.2054 37.907V44.5454H53.4878V37.8977C53.4816 37.1735 53.3145 36.6381 52.9865 36.2915C52.6646 35.9449 52.1602 35.7716 51.4731 35.7716C50.916 35.7716 50.4271 35.9201 50.0062 36.2172C49.5853 36.5143 49.2572 36.9043 49.022 37.3871V44.5454H47.3044V34.4996H48.9292Z" fill="white"/>
<path d="M61.9645 44.731C60.6028 44.731 59.4949 44.2854 58.6407 43.3941C57.7865 42.4966 57.3594 41.2989 57.3594 39.801V39.4853C57.3594 38.4888 57.5482 37.6006 57.9258 36.8207C58.3095 36.0346 58.8418 35.4219 59.5227 34.9824C60.2098 34.5368 60.9525 34.3139 61.751 34.3139C63.057 34.3139 64.0721 34.7441 64.7962 35.6045C65.5204 36.4648 65.8825 37.6965 65.8825 39.2997V40.0146H59.077C59.1018 41.0049 59.3896 41.8065 59.9405 42.4192C60.4976 43.0258 61.2032 43.3291 62.0574 43.3291C62.6639 43.3291 63.1777 43.2053 63.5986 42.9577C64.0195 42.7101 64.3877 42.3821 64.7034 41.9736L65.7525 42.7906C64.9108 44.0842 63.6481 44.731 61.9645 44.731ZM61.751 35.7252C61.0577 35.7252 60.4759 35.9789 60.0055 36.4865C59.5351 36.9878 59.2442 37.6935 59.1328 38.6033H64.1649V38.4733C64.1154 37.6006 63.8802 36.9259 63.4593 36.4493C63.0384 35.9666 62.469 35.7252 61.751 35.7252Z" fill="white"/>
<path fill-rule="evenodd" clip-rule="evenodd" d="M20.3804 43.9314C20.1302 42.9283 19.3843 41.7502 18.8032 40.4777C19.3013 41.5684 19.7993 42.659 20.3804 43.9314ZM21.7837 43.8168C20.9547 42.4569 20.4556 40.9084 19.9564 39.3599C19.5424 38.9089 19.2126 39.0974 18.8828 39.286C18.3062 39.8449 17.7285 39.946 18.3904 40.4845C19.2194 41.8444 19.8004 43.1169 20.2166 44.4836C20.3815 44.3893 20.7113 44.2007 20.8762 44.1064C21.206 43.9179 21.2879 43.6418 21.7837 43.8168ZM18.2221 39.2053C17.9719 38.2022 17.226 37.024 16.6449 35.7516C17.1429 36.8423 17.641 37.9329 18.2221 39.2053ZM15.9808 34.2974C15.8136 33.4761 14.9846 32.1161 14.4866 31.0255C14.9846 32.1161 15.3997 33.025 16.0638 34.4792C16.0638 34.4792 16.0638 34.4792 15.9808 34.2974ZM17.3841 34.1828C16.6381 33.0046 16.139 31.4561 15.5567 29.7259C15.2258 29.4566 14.896 29.6452 14.5662 29.8338C13.9896 30.3927 13.4119 30.4938 14.0738 31.0323C14.8197 32.2104 15.4838 33.6646 15.9 35.0313C16.0649 34.937 16.3947 34.7485 16.5596 34.6542C16.8064 34.2838 16.9713 34.1896 17.3841 34.1828ZM13.8225 29.5713C13.6553 28.7499 12.8263 27.39 12.3283 26.2994C12.8263 27.39 13.2414 28.2989 13.9055 29.7531L13.8225 29.5713ZM15.2258 29.4566C14.4798 28.2785 13.9806 26.73 13.3984 24.9998C13.0675 24.7305 12.7377 24.9191 12.4079 25.1077C11.8313 25.6666 11.1706 25.5859 11.9155 26.3062C12.6614 27.4843 13.3255 28.9385 13.7417 30.3052C13.9066 30.2109 14.2364 30.0223 14.3183 29.7463C14.6481 29.5577 14.813 29.4634 15.2258 29.4566ZM14.9084 34.6814C14.2476 34.6007 13.7518 34.4257 13.0911 34.345C13.7518 34.4257 14.1646 34.4189 14.9084 34.6814C13.9167 34.3314 13.173 34.0689 12.2643 33.9008C13.0081 34.1632 13.6688 34.2439 14.6605 34.5939C13.5858 34.0622 12.6772 33.894 11.8504 33.4497C12.5941 33.7122 13.3379 33.9747 14.4125 34.5064C13.5028 33.8804 12.5111 33.5304 11.5195 33.1805C12.5111 33.5304 13.5858 34.0622 14.9084 34.6814C15.1563 34.7689 15.1563 34.7689 14.9084 34.6814ZM14.5786 34.8699C14.5786 34.8699 14.4137 34.9642 14.3307 34.7825C13.0922 34.8028 12.0187 34.7289 11.0281 34.8368C11.9368 35.005 12.9273 34.8971 13.9178 34.7892C12.9273 34.8971 12.1017 34.9107 11.3591 35.1061C12.1847 35.0925 13.1752 34.9846 14.1658 34.8767C13.3401 34.8903 12.5975 35.0857 11.8549 35.2811C12.8454 35.1732 13.588 34.9778 14.4137 34.9642C13.836 35.0653 13.2582 35.1664 12.6805 35.2675C13.2582 35.1664 13.836 35.0653 14.4137 34.9642C14.5786 34.8699 14.5786 34.8699 14.5786 34.8699ZM15.0766 35.9606C14.7468 36.1492 14.5 36.5195 14.0053 36.8024C14.3351 36.6138 14.5819 36.2434 15.0766 35.9606C14.5819 36.2434 14.0053 36.8024 13.5106 37.0852C14.0053 36.8024 14.417 36.3377 14.9117 36.0549C14.2521 36.432 13.5925 36.8092 13.0159 37.3681C13.4276 36.9034 14.0872 36.5263 14.7468 36.1492C14.0872 36.5263 13.4276 36.9034 12.768 37.2806C13.4276 36.9034 14.1691 36.2502 14.9936 35.7788C15.1585 35.6845 15.2415 35.8663 15.0766 35.9606ZM15.1596 36.1424C14.9947 36.2366 14.9947 36.2366 14.9947 36.2366C14.3363 37.0716 13.8427 37.8123 13.514 38.4587C13.8427 37.8123 14.3363 37.0716 14.748 36.607C14.4193 37.2534 14.0076 37.718 13.6789 38.3644C14.0076 37.718 14.5012 36.9773 14.8298 36.3309C14.5012 36.9773 14.3374 37.5295 14.0906 37.8998C14.3374 37.5295 14.6661 36.883 14.9947 36.2366C14.831 36.7888 14.5842 37.1591 14.5023 37.4352C14.7491 37.0648 14.748 36.607 14.9947 36.2366L15.1596 36.1424ZM15.5713 35.6777C15.7362 35.5834 15.7362 35.5834 15.9011 35.4892C15.9842 35.6709 15.9842 35.6709 16.2321 35.7584C17.0611 37.1183 17.6421 38.3907 18.0583 39.7574C18.2232 39.6632 18.553 39.4746 18.7179 39.3803C18.9647 39.01 19.1296 38.9157 19.5424 38.9089C18.7964 37.7307 18.2973 36.1823 17.7151 34.452C17.3841 34.1828 17.0543 34.3713 16.7245 34.5599C16.3128 35.0245 15.9 35.0313 15.8181 35.3074C15.7351 35.1256 15.4872 35.0381 15.4042 34.8563C15.3212 34.6746 15.0733 34.5871 14.6593 34.136C13.5847 33.6043 11.8493 32.9919 10.9406 32.8237C11.1897 33.369 12.5123 33.9883 13.5869 34.52C12.5134 34.4461 11.11 34.5608 10.2855 35.0322C11.1123 35.4764 14.1669 35.3346 15.0744 35.0449C15.0744 35.0449 15.2393 34.9506 15.3223 35.1324C15.5702 35.2199 15.8181 35.3074 15.9011 35.4892C15.7362 35.5834 15.5713 35.6777 15.3234 35.5902C15.3234 35.5902 15.1585 35.6845 14.8287 35.8731C13.9212 36.1627 12.8499 37.0045 12.2733 37.5634C12.7691 37.7384 13.7586 37.1727 14.5 36.5195C14.0065 37.2602 13.431 38.2769 13.1023 38.9233C13.8449 38.728 15.1608 36.6002 15.2415 35.8663C15.4064 35.772 15.4064 35.772 15.5713 35.6777Z" fill="white"/>
<path fill-rule="evenodd" clip-rule="evenodd" d="M80 1H2C1.44772 1 1 1.44772 1 2V50C1 50.5523 1.44771 51 2 51H80C80.5523 51 81 50.5523 81 50V2C81 1.44771 80.5523 1 80 1ZM2 0C0.89543 0 0 0.895432 0 2V50C0 51.1046 0.895429 52 2 52H80C81.1046 52 82 51.1046 82 50V2C82 0.895431 81.1046 0 80 0H2Z" fill="white"/>
</svg>
