<svg width="47" height="30" viewBox="0 0 47 30" fill="none" xmlns="http://www.w3.org/2000/svg">
<path d="M2.41316 8.87041V12.2909H1.26099V3.55361H4.48347C5.43962 3.55361 6.18773 3.79765 6.72781 4.28572C7.27189 4.7738 7.54393 5.41989 7.54393 6.22401C7.54393 7.07214 7.27789 7.72624 6.74581 8.18631C6.21773 8.64238 5.45962 8.87041 4.47147 8.87041H2.41316ZM2.41316 7.92827H4.48347C5.09957 7.92827 5.57164 7.78425 5.89969 7.49621C6.22774 7.20416 6.39176 6.7841 6.39176 6.23602C6.39176 5.71594 6.22774 5.29988 5.89969 4.98783C5.57164 4.67578 5.12157 4.51376 4.54948 4.50175H2.41316V7.92827Z" fill="white"/>
<path d="M11.4505 12.4109C10.5704 12.4109 9.85428 12.1229 9.3022 11.5468C8.75012 10.9667 8.47407 10.1926 8.47407 9.22447V9.02044C8.47407 8.37634 8.59609 7.80225 8.84013 7.29818C9.08817 6.7901 9.43222 6.39404 9.87229 6.11C10.3164 5.82195 10.7964 5.67793 11.3125 5.67793C12.1566 5.67793 12.8127 5.95597 13.2808 6.51206C13.7489 7.06814 13.9829 7.86426 13.9829 8.90042V9.36249H9.58424C9.60024 10.0026 9.78627 10.5207 10.1423 10.9167C10.5024 11.3088 10.9584 11.5048 11.5105 11.5048C11.9026 11.5048 12.2346 11.4248 12.5067 11.2648C12.7787 11.1048 13.0168 10.8927 13.2208 10.6287L13.8989 11.1568C13.3548 11.9929 12.5387 12.4109 11.4505 12.4109ZM11.3125 6.59007C10.8644 6.59007 10.4884 6.75409 10.1843 7.08214C9.88029 7.40619 9.69226 7.86226 9.62025 8.45035H12.8727V8.36634C12.8407 7.80225 12.6887 7.36619 12.4167 7.05814C12.1446 6.74609 11.7766 6.59007 11.3125 6.59007Z" fill="white"/>
<path d="M16.7793 4.22571V5.79795H17.9915V6.65608H16.7793V10.6827C16.7793 10.9427 16.8333 11.1388 16.9414 11.2708C17.0494 11.3988 17.2334 11.4628 17.4934 11.4628C17.6215 11.4628 17.7975 11.4388 18.0215 11.3908V12.2909C17.7295 12.3709 17.4454 12.4109 17.1694 12.4109C16.6733 12.4109 16.2993 12.2609 16.0472 11.9609C15.7952 11.6608 15.6692 11.2348 15.6692 10.6827V6.65608H14.487V5.79795H15.6692V4.22571H16.7793Z" fill="white"/>
<path d="M22.0421 8.39634C21.054 8.1123 20.3339 7.76425 19.8818 7.35219C19.4337 6.93612 19.2097 6.42404 19.2097 5.81595C19.2097 5.12785 19.4837 4.55976 20.0318 4.1117C20.5839 3.65963 21.3 3.43359 22.1801 3.43359C22.7802 3.43359 23.3143 3.54961 23.7824 3.78165C24.2545 4.01368 24.6185 4.33373 24.8745 4.74179C25.1346 5.14985 25.2646 5.59592 25.2646 6.07999H24.1064C24.1064 5.55191 23.9384 5.13785 23.6024 4.83781C23.2663 4.53376 22.7922 4.38174 22.1801 4.38174C21.6121 4.38174 21.168 4.50776 20.8479 4.75979C20.5319 5.00783 20.3739 5.35388 20.3739 5.79795C20.3739 6.154 20.5239 6.45605 20.8239 6.70409C21.128 6.94812 21.6421 7.17216 22.3662 7.37619C23.0943 7.58022 23.6624 7.80625 24.0704 8.05429C24.4825 8.29833 24.7865 8.58437 24.9826 8.91242C25.1826 9.24047 25.2826 9.62653 25.2826 10.0706C25.2826 10.7787 25.0066 11.3468 24.4545 11.7749C23.9024 12.1989 23.1643 12.4109 22.2402 12.4109C21.6401 12.4109 21.08 12.2969 20.5599 12.0689C20.0398 11.8369 19.6378 11.5208 19.3537 11.1208C19.0737 10.7207 18.9337 10.2666 18.9337 9.75855H20.0918C20.0918 10.2866 20.2859 10.7047 20.6739 11.0127C21.066 11.3168 21.5881 11.4688 22.2402 11.4688C22.8482 11.4688 23.3143 11.3448 23.6384 11.0967C23.9624 10.8487 24.1244 10.5107 24.1244 10.0826C24.1244 9.65453 23.9744 9.32448 23.6744 9.09245C23.3743 8.85641 22.8302 8.62438 22.0421 8.39634Z" fill="white"/>
<path d="M28.097 4.22571V5.79795H29.3092V6.65608H28.097V10.6827C28.097 10.9427 28.151 11.1388 28.2591 11.2708C28.3671 11.3988 28.5511 11.4628 28.8111 11.4628C28.9392 11.4628 29.1152 11.4388 29.3392 11.3908V12.2909C29.0472 12.3709 28.7631 12.4109 28.4871 12.4109C27.991 12.4109 27.617 12.2609 27.3649 11.9609C27.1129 11.6608 26.9869 11.2348 26.9869 10.6827V6.65608H25.8047V5.79795H26.9869V4.22571H28.097Z" fill="white"/>
<path d="M30.1974 8.98443C30.1974 8.34834 30.3214 7.77625 30.5694 7.26817C30.8214 6.7601 31.1695 6.36804 31.6136 6.092C32.0616 5.81595 32.5717 5.67793 33.1438 5.67793C34.0279 5.67793 34.742 5.98398 35.2861 6.59607C35.8342 7.20816 36.1082 8.02229 36.1082 9.03844V9.11645C36.1082 9.74855 35.9862 10.3166 35.7422 10.8207C35.5022 11.3208 35.1561 11.7108 34.704 11.9909C34.256 12.2709 33.7399 12.4109 33.1558 12.4109C32.2757 12.4109 31.5616 12.1049 31.0135 11.4928C30.4694 10.8807 30.1974 10.0706 30.1974 9.06244V8.98443ZM31.3135 9.11645C31.3135 9.83656 31.4795 10.4146 31.8116 10.8507C32.1476 11.2868 32.5957 11.5048 33.1558 11.5048C33.7199 11.5048 34.1679 11.2848 34.5 10.8447C34.8321 10.4006 34.9981 9.78055 34.9981 8.98443C34.9981 8.27232 34.8281 7.69624 34.488 7.25617C34.1519 6.8121 33.7039 6.59007 33.1438 6.59007C32.5957 6.59007 32.1536 6.8081 31.8176 7.24417C31.4815 7.68023 31.3135 8.30433 31.3135 9.11645Z" fill="white"/>
<path d="M40.6389 6.7941C40.4709 6.7661 40.2889 6.75209 40.0928 6.75209C39.3647 6.75209 38.8707 7.06214 38.6106 7.68223V12.2909H37.5005V5.79795H38.5806L38.5986 6.54806C38.9627 5.96798 39.4788 5.67793 40.1469 5.67793C40.3629 5.67793 40.5269 5.70594 40.6389 5.76195V6.7941Z" fill="white"/>
<path d="M43.8974 10.6647L45.4096 5.79795H46.5978L43.9874 13.2931C43.5834 14.3732 42.9413 14.9133 42.0611 14.9133L41.8511 14.8953L41.437 14.8173V13.9172L41.7371 13.9412C42.1132 13.9412 42.4052 13.8652 42.6132 13.7131C42.8253 13.5611 42.9993 13.2831 43.1353 12.879L43.3813 12.2189L41.065 5.79795H42.2772L43.8974 10.6647Z" fill="white"/>
<path d="M7.51393 23.9844C7.51393 23.3483 7.63795 22.7762 7.88599 22.2682C8.13802 21.7601 8.48608 21.368 8.93014 21.092C9.37821 20.816 9.88829 20.6779 10.4604 20.6779C11.3445 20.6779 12.0586 20.984 12.6027 21.5961C13.1508 22.2082 13.4248 23.0223 13.4248 24.0384V24.1165C13.4248 24.7485 13.3028 25.3166 13.0588 25.8207C12.8187 26.3208 12.4727 26.7108 12.0206 26.9909C11.5725 27.2709 11.0565 27.4109 10.4724 27.4109C9.59224 27.4109 8.87814 27.1049 8.33005 26.4928C7.78597 25.8807 7.51393 25.0706 7.51393 24.0624V23.9844ZM8.6301 24.1165C8.6301 24.8366 8.79612 25.4146 9.12817 25.8507C9.46422 26.2868 9.91229 26.5048 10.4724 26.5048C11.0365 26.5048 11.4845 26.2848 11.8166 25.8447C12.1486 25.4006 12.3147 24.7806 12.3147 23.9844C12.3147 23.2723 12.1446 22.6962 11.8046 22.2562C11.4685 21.8121 11.0205 21.5901 10.4604 21.5901C9.91229 21.5901 9.47022 21.8081 9.13417 22.2442C8.79812 22.6802 8.6301 23.3043 8.6301 24.1165Z" fill="white"/>
<path d="M15.8672 20.798L15.9032 21.6141C16.3993 20.99 17.0474 20.6779 17.8475 20.6779C19.2197 20.6779 19.9118 21.452 19.9238 23.0003V27.2909H18.8136V22.9943C18.8096 22.5262 18.7016 22.1802 18.4896 21.9561C18.2816 21.7321 17.9555 21.6201 17.5114 21.6201C17.1514 21.6201 16.8353 21.7161 16.5633 21.9081C16.2913 22.1001 16.0792 22.3522 15.9272 22.6642V27.2909H14.817V20.798H15.8672Z" fill="white"/>
<path d="M22.8042 27.2909H21.6941V18.0735H22.8042V27.2909Z" fill="white"/>
<path d="M25.7927 27.2909H24.6825V20.798H25.7927V27.2909ZM24.5925 19.0757C24.5925 18.8957 24.6465 18.7436 24.7545 18.6196C24.8665 18.4956 25.0306 18.4336 25.2466 18.4336C25.4626 18.4336 25.6267 18.4956 25.7387 18.6196C25.8507 18.7436 25.9067 18.8957 25.9067 19.0757C25.9067 19.2557 25.8507 19.4057 25.7387 19.5258C25.6267 19.6458 25.4626 19.7058 25.2466 19.7058C25.0306 19.7058 24.8665 19.6458 24.7545 19.5258C24.6465 19.4057 24.5925 19.2557 24.5925 19.0757Z" fill="white"/>
<path d="M28.6251 20.798L28.6611 21.6141C29.1572 20.99 29.8053 20.6779 30.6054 20.6779C31.9776 20.6779 32.6697 21.452 32.6817 23.0003V27.2909H31.5716V22.9943C31.5676 22.5262 31.4595 22.1802 31.2475 21.9561C31.0395 21.7321 30.7134 21.6201 30.2694 21.6201C29.9093 21.6201 29.5933 21.7161 29.3212 21.9081C29.0492 22.1001 28.8371 22.3522 28.6851 22.6642V27.2909H27.575V20.798H28.6251Z" fill="white"/>
<path d="M37.0504 27.4109C36.1703 27.4109 35.4541 27.1229 34.9021 26.5468C34.35 25.9667 34.0739 25.1926 34.0739 24.2245V24.0204C34.0739 23.3763 34.196 22.8023 34.44 22.2982C34.688 21.7901 35.0321 21.394 35.4721 21.11C35.9162 20.822 36.3963 20.6779 36.9124 20.6779C37.7565 20.6779 38.4126 20.956 38.8807 21.5121C39.3487 22.0681 39.5828 22.8643 39.5828 23.9004V24.3625H35.1841C35.2001 25.0026 35.3861 25.5207 35.7422 25.9167C36.1022 26.3088 36.5583 26.5048 37.1104 26.5048C37.5025 26.5048 37.8345 26.4248 38.1065 26.2648C38.3786 26.1048 38.6166 25.8927 38.8207 25.6287L39.4988 26.1568C38.9547 26.9929 38.1385 27.4109 37.0504 27.4109ZM36.9124 21.5901C36.4643 21.5901 36.0882 21.7541 35.7842 22.0821C35.4801 22.4062 35.2921 22.8623 35.2201 23.4503H38.4726V23.3663C38.4406 22.8023 38.2886 22.3662 38.0165 22.0581C37.7445 21.7461 37.3764 21.5901 36.9124 21.5901Z" fill="white"/>
<path fill-rule="evenodd" clip-rule="evenodd" d="M10.1728 26.7486C10.0111 26.1003 9.52892 25.3388 9.15335 24.5164C9.47527 25.2213 9.79719 25.9262 10.1728 26.7486ZM11.0798 26.6745C10.544 25.7956 10.2213 24.7947 9.8987 23.7939C9.63115 23.5023 9.41799 23.6242 9.20482 23.7461C8.83215 24.1074 8.45875 24.1727 8.88653 24.5208C9.42234 25.3997 9.79792 26.2221 10.0669 27.1055C10.1735 27.0446 10.3867 26.9227 10.4932 26.8617C10.7064 26.7399 10.7593 26.5614 11.0798 26.6745ZM8.77777 23.694C8.61608 23.0456 8.13392 22.2841 7.75835 21.4617C8.08027 22.1666 8.40219 22.8715 8.77777 23.694ZM7.32912 20.5218C7.22108 19.9909 6.68527 19.1119 6.36335 18.407C6.68527 19.1119 6.95354 19.6994 7.38277 20.6393C7.38277 20.6393 7.38277 20.6393 7.32912 20.5218ZM8.23615 20.4477C7.75399 19.6862 7.43135 18.6853 7.05504 17.567C6.84115 17.393 6.62799 17.5149 6.41482 17.6367C6.04215 17.998 5.66875 18.0633 6.09653 18.4114C6.57869 19.1729 7.00792 20.1128 7.27691 20.9961C7.38349 20.9352 7.59666 20.8133 7.70324 20.7524C7.86275 20.513 7.96933 20.4521 8.23615 20.4477ZM5.93412 17.4671C5.82608 16.9362 5.29027 16.0572 4.96835 15.3523C5.29027 16.0572 5.55854 16.6447 5.98777 17.5846L5.93412 17.4671ZM6.84115 17.393C6.35899 16.6315 6.03634 15.6307 5.66004 14.5123C5.44615 14.3383 5.23299 14.4602 5.01982 14.582C4.64715 14.9433 4.22009 14.8911 4.70153 15.3567C5.18369 16.1182 5.61292 17.0581 5.88191 17.9414C5.98849 17.8805 6.20166 17.7586 6.25459 17.5802C6.46775 17.4583 6.57433 17.3974 6.84115 17.393ZM6.63597 20.7699C6.20891 20.7178 5.88844 20.6047 5.46139 20.5525C5.88844 20.6047 6.15526 20.6003 6.63597 20.7699C5.99502 20.5437 5.51432 20.3741 4.92702 20.2654C5.40773 20.435 5.83479 20.4872 6.47573 20.7134C5.78113 20.3697 5.19384 20.261 4.65948 19.9739C5.14019 20.1435 5.6209 20.3132 6.3155 20.6568C5.72748 20.2522 5.08654 20.026 4.44559 19.7998C5.08654 20.026 5.78113 20.3697 6.63597 20.7699C6.7962 20.8265 6.7962 20.8265 6.63597 20.7699ZM6.4228 20.8918C6.4228 20.8918 6.31622 20.9528 6.26257 20.8353C5.46211 20.8484 4.76824 20.8007 4.12802 20.8704C4.71531 20.9791 5.35553 20.9094 5.99575 20.8397C5.35553 20.9094 4.82189 20.9182 4.34191 21.0444C4.87555 21.0357 5.51577 20.9659 6.15599 20.8962C5.62235 20.905 5.14237 21.0313 4.66238 21.1575C5.3026 21.0878 5.78258 20.9615 6.31622 20.9528C5.94282 21.0181 5.56942 21.0834 5.19602 21.1488C5.56942 21.0834 5.94282 21.0181 6.31622 20.9528C6.4228 20.8918 6.4228 20.8918 6.4228 20.8918ZM6.74473 21.5967C6.53156 21.7186 6.37205 21.958 6.0523 22.1408C6.26547 22.0189 6.42498 21.7796 6.74473 21.5967C6.42498 21.7796 6.0523 22.1408 5.73256 22.3236C6.0523 22.1408 6.3184 21.8405 6.63814 21.6577C6.21182 21.9014 5.78549 22.1452 5.41281 22.5065C5.6789 22.2061 6.10523 21.9624 6.53156 21.7186C6.10523 21.9624 5.6789 22.2061 5.25258 22.4499C5.6789 22.2061 6.15816 21.784 6.69107 21.4793C6.79766 21.4183 6.85131 21.5358 6.74473 21.5967ZM6.79838 21.7142C6.6918 21.7752 6.6918 21.7752 6.6918 21.7752C6.26619 22.3148 5.94717 22.7936 5.73473 23.2114C5.94717 22.7936 6.26619 22.3148 6.53229 22.0145C6.31985 22.4323 6.05376 22.7326 5.84132 23.1504C6.05376 22.7326 6.37278 22.2539 6.58522 21.8361C6.37278 22.2539 6.26692 22.6108 6.10741 22.8501C6.26692 22.6108 6.47936 22.193 6.6918 21.7752C6.58594 22.132 6.42643 22.3714 6.3735 22.5498C6.53301 22.3105 6.53229 22.0145 6.6918 21.7752L6.79838 21.7142ZM7.06447 21.4139C7.17106 21.353 7.17106 21.353 7.27764 21.292C7.33129 21.4095 7.33129 21.4095 7.49153 21.4661C8.02734 22.345 8.40292 23.1675 8.67191 24.0508C8.7785 23.9899 8.99166 23.868 9.09824 23.807C9.25775 23.5677 9.36434 23.5067 9.63115 23.5023C9.14899 22.7409 8.82635 21.74 8.45004 20.6217C8.23615 20.4477 8.02299 20.5695 7.80982 20.6914C7.54373 20.9917 7.27691 20.9961 7.22398 21.1746C7.17033 21.0571 7.01009 21.0005 6.95644 20.883C6.90279 20.7655 6.74255 20.709 6.47501 20.4175C5.78041 20.0738 4.65876 19.678 4.07146 19.5693C4.23243 19.9217 5.08726 20.3219 5.78186 20.6656C5.08799 20.6179 4.18095 20.692 3.64804 20.9967C4.1824 21.2838 6.15671 21.1921 6.74328 21.0049C6.74328 21.0049 6.84986 20.944 6.90351 21.0615C7.06375 21.118 7.22398 21.1746 7.27764 21.292C7.17106 21.353 7.06447 21.4139 6.90424 21.3574C6.90424 21.3574 6.79766 21.4183 6.58449 21.5402C5.99793 21.7274 5.3055 22.2715 4.93283 22.6327C5.2533 22.7458 5.89279 22.3802 6.37205 21.958C6.05303 22.4367 5.68108 23.0939 5.46864 23.5117C5.94862 23.3854 6.79911 22.0101 6.85131 21.5358C6.95789 21.4749 6.95789 21.4749 7.06447 21.4139Z" fill="white"/>
</svg>
